# xmcd
#
# Track frame offsets:
#	150
#	23688
#	39097
#	56751
#	90424
#	114607
#	129819
#	158490
#	186352
#	203343
#	217929
#	243637
#	257457
#
# Disc length: 3660 seconds
# Revision: 0
# Processed by: cddbd v1.5.2PL0 Copyright (c) Steve Scherf et al.
# Submitted via: dBpowerAMP V12.0
#
DISCID=990e4a0d
DTITLE=Terri Clark - Live: Road Rage
DYEAR=2009
DGENRE=Country
TTITLE0=In My Next Life
TTITLE1=You're Easy On The Eyes
TTITLE2=Better Things To Do
TTITLE3=Medley: Emotional Girl/If I Were You/A Little Gasoline/When Boy Meets Girl
TTITLE4=No Fear
TTITLE5=Dirty Girl
TTITLE6=Now That I Found You
TTITLE7=Love Me Like A Man
TTITLE8=I Just Wanna Be Mad
TTITLE9=Poor Poor Pitiful Me
TTITLE10=Girls Lie Too
TTITLE11=I Wanna Do It All
TTITLE12=Hard To Handle
EXTD=
EXTT0=
EXTT1=
EXTT2=
EXTT3=
EXTT4=
EXTT5=
EXTT6=
EXTT7=
EXTT8=
EXTT9=
EXTT10=
EXTT11=
EXTT12=
PLAYORDER=
